{
  "accessors": [
    {
      "bufferView": 2,
      "componentType": 5126,
      "count": 11543,
      "max": [
        62.48090744018555,
        14.550969123840332,
        46.07758712768555
      ],
      "min": [
        -63.90494918823242,
        12.6110200881958,
        -58.375003814697266
      ],
      "type": "VEC3"
    },
    {
      "bufferView": 2,
      "byteOffset": 138516,
      "componentType": 5126,
      "count": 11543,
      "max": [
        0.8267402052879333,
        -0.527870237827301,
        0.8312487006187439
      ],
      "min": [
        -0.8004609942436218,
        -1.0,
        -0.7817220091819763
      ],
      "type": "VEC3"
    },
    {
      "bufferView": 1,
      "componentType": 5126,
      "count": 11543,
      "max": [
        0.9960417747497559,
        0.9979196786880493
      ],
      "min": [
        0.0020874463953077793,
        0.0037959814071655273
      ],
      "type": "VEC2"
    },
    {
      "bufferView": 0,
      "componentType": 5125,
      "count": 62811,
      "type": "SCALAR"
    },
    {
      "bufferView": 2,
      "byteOffset": 277032,
      "componentType": 5126,
      "count": 10443,
      "max": [
        52.5615348815918,
        14.655211448669434,
        44.56427001953125
      ],
      "min": [
        -61.34939193725586,
        9.684799194335938,
        -56.0636100769043
      ],
      "type": "VEC3"
    },
    {
      "bufferView": 2,
      "byteOffset": 402348,
      "componentType": 5126,
      "count": 10443,
      "max": [
        0.9842986464500427,
        -0.13368545472621918,
        0.8244950175285339
      ],
      "min": [
        -0.8165615797042847,
        -0.9999998807907104,
        -0.7928670048713684
      ],
      "type": "VEC3"
    },
    {
      "bufferView": 1,
      "byteOffset": 92344,
      "componentType": 5126,
      "count": 10443,
      "max": [
        0.9961857199668884,
        0.9978384971618652
      ],
      "min": [
        0.0021139560267329216,
        0.0038586854934692383
      ],
      "type": "VEC2"
    },
    {
      "bufferView": 0,
      "byteOffset": 251244,
      "componentType": 5125,
      "count": 55638,
      "type": "SCALAR"
    },
    {
      "bufferView": 2,
      "byteOffset": 527664,
      "componentType": 5126,
      "count": 10618,
      "max": [
        47.51170349121094,
        14.591171264648438,
        46.40016174316406
      ],
      "min": [
        -59.76262283325195,
        12.054734230041504,
        -64.19697570800781
      ],
      "type": "VEC3"
    },
    {
      "bufferView": 2,
      "byteOffset": 655080,
      "componentType": 5126,
      "count": 10618,
      "max": [
        0.9978281855583191,
        0.48100546002388,
        0.994361937046051
      ],
      "min": [
        -0.9529204368591309,
        -1.0,
        -0.9903454184532166
      ],
      "type": "VEC3"
    },
    {
      "bufferView": 1,
      "byteOffset": 175888,
      "componentType": 5126,
      "count": 10618,
      "max": [
        0.9962049126625061,
        0.9979155659675598
      ],
      "min": [
        0.002132970141246915,
        0.0038509368896484375
      ],
      "type": "VEC2"
    },
    {
      "bufferView": 0,
      "byteOffset": 473796,
      "componentType": 5125,
      "count": 56094,
      "type": "SCALAR"
    },
    {
      "bufferView": 2,
      "byteOffset": 782496,
      "componentType": 5126,
      "count": 12974,
      "max": [
        57.93264389038086,
        14.656105995178223,
        29.938711166381836
      ],
      "min": [
        -30.506834030151367,
        11.645034790039063,
        -63.77439498901367
      ],
      "type": "VEC3"
    },
    {
      "bufferView": 2,
      "byteOffset": 938184,
      "componentType": 5126,
      "count": 12974,
      "max": [
        0.8043474555015564,
        -0.28354308009147644,
        0.7710005044937134
      ],
      "min": [
        -0.9309900403022766,
        -1.0,
        -0.7913365960121155
      ],
      "type": "VEC3"
    },
    {
      "bufferView": 1,
      "byteOffset": 260832,
      "componentType": 5126,
      "count": 12974,
      "max": [
        0.9961703419685364,
        0.9979200959205627
      ],
      "min": [
        0.0021056949626654387,
        0.0037931203842163086
      ],
      "type": "VEC2"
    },
    {
      "bufferView": 0,
      "byteOffset": 698172,
      "componentType": 5125,
      "count": 70707,
      "type": "SCALAR"
    },
    {
      "bufferView": 2,
      "byteOffset": 1093872,
      "componentType": 5126,
      "count": 10380,
      "max": [
        33.74856948852539,
        14.683706283569336,
        35.298309326171875
      ],
      "min": [
        -37.94438171386719,
        12.881031036376953,
        -62.79594421386719
      ],
      "type": "VEC3"
    },
    {
      "bufferView": 2,
      "byteOffset": 1218432,
      "componentType": 5126,
      "count": 10380,
      "max": [
        0.7336946129798889,
        -0.20200885832309723,
        0.793619692325592
      ],
      "min": [
        -0.9703966379165649,
        -0.9999997615814209,
        -0.8682532906532288
      ],
      "type": "VEC3"
    },
    {
      "bufferView": 1,
      "byteOffset": 364624,
      "componentType": 5126,
      "count": 10380,
      "max": [
        0.9961334466934204,
        0.9978502988815308
      ],
      "min": [
        0.0020824249368160963,
        0.003815174102783203
      ],
      "type": "VEC2"
    },
    {
      "bufferView": 0,
      "byteOffset": 981000,
      "componentType": 5125,
      "count": 55113,
      "type": "SCALAR"
    },
    {
      "bufferView": 2,
      "byteOffset": 1342992,
      "componentType": 5126,
      "count": 14601,
      "max": [
        44.88606643676758,
        15.398469924926758,
        42.36252975463867
      ],
      "min": [
        -62.980655670166016,
        11.901930809020996,
        -66.43464660644531
      ],
      "type": "VEC3"
    },
    {
      "bufferView": 2,
      "byteOffset": 1518204,
      "componentType": 5126,
      "count": 14601,
      "max": [
        0.9993433952331543,
        0.9736483693122864,
        0.9982588887214661
      ],
      "min": [
        -0.9757062196731567,
        -1.0,
        -0.9785346388816833
      ],
      "type": "VEC3"
    },
    {
      "bufferView": 1,
      "byteOffset": 447664,
      "componentType": 5126,
      "count": 14601,
      "max": [
        0.9960576891899109,
        0.9979247450828552
      ],
      "min": [
        0.002087428467348218,
        0.004039287567138672
      ],
      "type": "VEC2"
    },
    {
      "bufferView": 0,
      "byteOffset": 1201452,
      "componentType": 5125,
      "count": 75732,
      "type": "SCALAR"
    },
    {
      "bufferView": 2,
      "byteOffset": 1693416,
      "componentType": 5126,
      "count": 11063,
      "max": [
        52.0883674621582,
        14.963336944580078,
        38.832847595214844
      ],
      "min": [
        -64.1885757446289,
        12.104792594909668,
        -65.37982940673828
      ],
      "type": "VEC3"
    },
    {
      "bufferView": 2,
      "byteOffset": 1826172,
      "componentType": 5126,
      "count": 11063,
      "max": [
        0.9964141249656677,
        0.9985729455947876,
        0.997701108455658
      ],
      "min": [
        -0.9830880165100098,
        -1.0,
        -0.9972181916236877
      ],
      "type": "VEC3"
    },
    {
      "bufferView": 1,
      "byteOffset": 564472,
      "componentType": 5126,
      "count": 11063,
      "max": [
        0.996135413646698,
        0.997917652130127
      ],
      "min": [
        0.002095018280670047,
        0.004036068916320801
      ],
      "type": "VEC2"
    },
    {
      "bufferView": 0,
      "byteOffset": 1504380,
      "componentType": 5125,
      "count": 57621,
      "type": "SCALAR"
    },
    {
      "bufferView": 2,
      "byteOffset": 1958928,
      "componentType": 5126,
      "count": 8593,
      "max": [
        51.96660232543945,
        14.575584411621094,
        44.50197982788086
      ],
      "min": [
        -64.06678009033203,
        9.688385009765625,
        -50.98057174682617
      ],
      "type": "VEC3"
    },
    {
      "bufferView": 2,
      "byteOffset": 2062044,
      "componentType": 5126,
      "count": 8593,
      "max": [
        0.7989516258239746,
        -0.5081294178962708,
        0.8138622641563416
      ],
      "min": [
        -0.7406200766563416,
        -1.0,
        -0.8105591535568237
      ],
      "type": "VEC3"
    },
    {
      "bufferView": 1,
      "byteOffset": 652976,
      "componentType": 5126,
      "count": 8593,
      "max": [
        0.9958705902099609,
        0.9979075789451599
      ],
      "min": [
        0.002085943939164281,
        0.004292964935302734
      ],
      "type": "VEC2"
    },
    {
      "bufferView": 0,
      "byteOffset": 1734864,
      "componentType": 5125,
      "count": 45351,
      "type": "SCALAR"
    },
    {
      "bufferView": 2,
      "byteOffset": 2165160,
      "componentType": 5126,
      "count": 8134,
      "max": [
        61.72962951660156,
        14.548514366149902,
        45.74879455566406
      ],
      "min": [
        -61.631248474121094,
        12.330074310302734,
        -39.8024787902832
      ],
      "type": "VEC3"
    },
    {
      "bufferView": 2,
      "byteOffset": 2262768,
      "componentType": 5126,
      "count": 8134,
      "max": [
        0.8159380555152893,
        -0.5290813446044922,
        0.7785632014274597
      ],
      "min": [
        -0.8244098424911499,
        -1.0,
        -0.8296095132827759
      ],
      "type": "VEC3"
    },
    {
      "bufferView": 1,
      "byteOffset": 721720,
      "componentType": 5126,
      "count": 8134,
      "max": [
        0.9954612851142883,
        0.997856855392456
      ],
      "min": [
        0.0021017694380134344,
        0.06450140476226807
      ],
      "type": "VEC2"
    },
    {
      "bufferView": 0,
      "byteOffset": 1916268,
      "componentType": 5125,
      "count": 42438,
      "type": "SCALAR"
    },
    {
      "bufferView": 2,
      "byteOffset": 2360376,
      "componentType": 5126,
      "count": 4420,
      "max": [
        61.90071105957031,
        15.087778091430664,
        45.348026275634766
      ],
      "min": [
        -64.3682632446289,
        10.937250137329102,
        -66.19595336914063
      ],
      "type": "VEC3"
    },
    {
      "bufferView": 2,
      "byteOffset": 2413416,
      "componentType": 5126,
      "count": 4420,
      "max": [
        0.9989116191864014,
        0.9971391558647156,
        0.9998378753662109
      ],
      "min": [
        -0.9938934445381165,
        -0.9999982118606567,
        -0.9890462160110474
      ],
      "type": "VEC3"
    },
    {
      "bufferView": 1,
      "byteOffset": 786792,
      "componentType": 5126,
      "count": 4420,
      "max": [
        0.9961683750152588,
        0.991645097732544
      ],
      "min": [
        0.0041572232730686665,
        0.007421672344207764
      ],
      "type": "VEC2"
    },
    {
      "bufferView": 0,
      "byteOffset": 2086020,
      "componentType": 5125,
      "count": 18648,
      "type": "SCALAR"
    }
  ],
  "asset": {
    "extras": {
      "author": "LibanCiel (https://sketchfab.com/LibanCiel)",
      "license": "SKETCHFAB Editorial (https://sketchfab.com/licenses)",
      "source": "https://sketchfab.com/3d-models/al-ula-ksa-dc715d68ad04422e816b6f3abdc843c8",
      "title": "Al Ula, KSA العلا"
    },
    "generator": "Sketchfab-12.66.0",
    "version": "2.0"
  },
  "bufferViews": [
    {
      "buffer": 0,
      "byteLength": 2160612,
      "name": "floatBufferViews",
      "target": 34963
    },
    {
      "buffer": 0,
      "byteLength": 822152,
      "byteOffset": 2160612,
      "byteStride": 8,
      "name": "floatBufferViews",
      "target": 34962
    },
    {
      "buffer": 0,
      "byteLength": 2466456,
      "byteOffset": 2982764,
      "byteStride": 12,
      "name": "floatBufferViews",
      "target": 34962
    }
  ],
  "buffers": [
    {
      "byteLength": 5449220,
      "uri": "scene.bin"
    }
  ],
  "images": [
    {
      "uri": "textures/Model_0_baseColor.jpeg"
    },
    {
      "uri": "textures/Model_1_baseColor.jpeg"
    },
    {
      "uri": "textures/Model_2_baseColor.jpeg"
    },
    {
      "uri": "textures/Model_3_baseColor.jpeg"
    },
    {
      "uri": "textures/Model_4_baseColor.jpeg"
    },
    {
      "uri": "textures/Model_5_baseColor.jpeg"
    },
    {
      "uri": "textures/Model_6_baseColor.jpeg"
    },
    {
      "uri": "textures/Model_7_baseColor.jpeg"
    },
    {
      "uri": "textures/Model_8_baseColor.jpeg"
    },
    {
      "uri": "textures/Model_9_baseColor.jpeg"
    }
  ],
  "materials": [
    {
      "doubleSided": true,
      "name": "Model_0",
      "pbrMetallicRoughness": {
        "baseColorTexture": {
          "index": 0
        },
        "metallicFactor": 0.0
      }
    },
    {
      "doubleSided": true,
      "name": "Model_1",
      "pbrMetallicRoughness": {
        "baseColorTexture": {
          "index": 1
        },
        "metallicFactor": 0.0
      }
    },
    {
      "doubleSided": true,
      "name": "Model_2",
      "pbrMetallicRoughness": {
        "baseColorTexture": {
          "index": 2
        },
        "metallicFactor": 0.0
      }
    },
    {
      "doubleSided": true,
      "name": "Model_3",
      "pbrMetallicRoughness": {
        "baseColorTexture": {
          "index": 3
        },
        "metallicFactor": 0.0
      }
    },
    {
      "doubleSided": true,
      "name": "Model_4",
      "pbrMetallicRoughness": {
        "baseColorTexture": {
          "index": 4
        },
        "metallicFactor": 0.0
      }
    },
    {
      "doubleSided": true,
      "name": "Model_5",
      "pbrMetallicRoughness": {
        "baseColorTexture": {
          "index": 5
        },
        "metallicFactor": 0.0
      }
    },
    {
      "doubleSided": true,
      "name": "Model_6",
      "pbrMetallicRoughness": {
        "baseColorTexture": {
          "index": 6
        },
        "metallicFactor": 0.0
      }
    },
    {
      "doubleSided": true,
      "name": "Model_7",
      "pbrMetallicRoughness": {
        "baseColorTexture": {
          "index": 7
        },
        "metallicFactor": 0.0
      }
    },
    {
      "doubleSided": true,
      "name": "Model_8",
      "pbrMetallicRoughness": {
        "baseColorTexture": {
          "index": 8
        },
        "metallicFactor": 0.0
      }
    },
    {
      "doubleSided": true,
      "name": "Model_9",
      "pbrMetallicRoughness": {
        "baseColorTexture": {
          "index": 9
        },
        "metallicFactor": 0.0
      }
    }
  ],
  "meshes": [
    {
      "name": "Object_0",
      "primitives": [
        {
          "attributes": {
            "NORMAL": 1,
            "POSITION": 0,
            "TEXCOORD_0": 2
          },
          "indices": 3,
          "material": 0,
          "mode": 4
        }
      ]
    },
    {
      "name": "Object_1",
      "primitives": [
        {
          "attributes": {
            "NORMAL": 5,
            "POSITION": 4,
            "TEXCOORD_0": 6
          },
          "indices": 7,
          "material": 1,
          "mode": 4
        }
      ]
    },
    {
      "name": "Object_2",
      "primitives": [
        {
          "attributes": {
            "NORMAL": 9,
            "POSITION": 8,
            "TEXCOORD_0": 10
          },
          "indices": 11,
          "material": 2,
          "mode": 4
        }
      ]
    },
    {
      "name": "Object_3",
      "primitives": [
        {
          "attributes": {
            "NORMAL": 13,
            "POSITION": 12,
            "TEXCOORD_0": 14
          },
          "indices": 15,
          "material": 3,
          "mode": 4
        }
      ]
    },
    {
      "name": "Object_4",
      "primitives": [
        {
          "attributes": {
            "NORMAL": 17,
            "POSITION": 16,
            "TEXCOORD_0": 18
          },
          "indices": 19,
          "material": 4,
          "mode": 4
        }
      ]
    },
    {
      "name": "Object_5",
      "primitives": [
        {
          "attributes": {
            "NORMAL": 21,
            "POSITION": 20,
            "TEXCOORD_0": 22
          },
          "indices": 23,
          "material": 5,
          "mode": 4
        }
      ]
    },
    {
      "name": "Object_6",
      "primitives": [
        {
          "attributes": {
            "NORMAL": 25,
            "POSITION": 24,
            "TEXCOORD_0": 26
          },
          "indices": 27,
          "material": 6,
          "mode": 4
        }
      ]
    },
    {
      "name": "Object_7",
      "primitives": [
        {
          "attributes": {
            "NORMAL": 29,
            "POSITION": 28,
            "TEXCOORD_0": 30
          },
          "indices": 31,
          "material": 7,
          "mode": 4
        }
      ]
    },
    {
      "name": "Object_8",
      "primitives": [
        {
          "attributes": {
            "NORMAL": 33,
            "POSITION": 32,
            "TEXCOORD_0": 34
          },
          "indices": 35,
          "material": 8,
          "mode": 4
        }
      ]
    },
    {
      "name": "Object_9",
      "primitives": [
        {
          "attributes": {
            "NORMAL": 37,
            "POSITION": 36,
            "TEXCOORD_0": 38
          },
          "indices": 39,
          "material": 9,
          "mode": 4
        }
      ]
    }
  ],
  "nodes": [
    {
      "children": [
        1
      ],
      "matrix": [
        1.0,
        0.0,
        0.0,
        0.0,
        0.0,
        -1.0,
        -4.440892098500626e-16,
        0.0,
        0.0,
        4.440892098500626e-16,
        -1.0,
        0.0,
        0.0,
        2.5244736671447803,
        -22.55877113342285,
        1.0
      ],
      "name": "Sketchfab_model"
    },
    {
      "children": [
        2,
        3,
        4,
        5,
        6,
        7,
        8,
        9,
        10,
        11
      ],
      "name": "Model.obj.cleaner.materialmerger.gles"
    },
    {
      "mesh": 0,
      "name": "Object_2"
    },
    {
      "mesh": 1,
      "name": "Object_3"
    },
    {
      "mesh": 2,
      "name": "Object_4"
    },
    {
      "mesh": 3,
      "name": "Object_5"
    },
    {
      "mesh": 4,
      "name": "Object_6"
    },
    {
      "mesh": 5,
      "name": "Object_7"
    },
    {
      "mesh": 6,
      "name": "Object_8"
    },
    {
      "mesh": 7,
      "name": "Object_9"
    },
    {
      "mesh": 8,
      "name": "Object_10"
    },
    {
      "mesh": 9,
      "name": "Object_11"
    }
  ],
  "samplers": [
    {
      "magFilter": 9729,
      "minFilter": 9987,
      "wrapS": 10497,
      "wrapT": 10497
    }
  ],
  "scene": 0,
  "scenes": [
    {
      "name": "Sketchfab_Scene",
      "nodes": [
        0
      ]
    }
  ],
  "textures": [
    {
      "sampler": 0,
      "source": 0
    },
    {
      "sampler": 0,
      "source": 1
    },
    {
      "sampler": 0,
      "source": 2
    },
    {
      "sampler": 0,
      "source": 3
    },
    {
      "sampler": 0,
      "source": 4
    },
    {
      "sampler": 0,
      "source": 5
    },
    {
      "sampler": 0,
      "source": 6
    },
    {
      "sampler": 0,
      "source": 7
    },
    {
      "sampler": 0,
      "source": 8
    },
    {
      "sampler": 0,
      "source": 9
    }
  ]
}
